<mxfile host="app.diagrams.net" modified="2023-12-11T23:13:05.548Z" agent="Mozilla/5.0 (Windows NT 10.0; Win64; x64) AppleWebKit/537.36 (KHTML, like Gecko) Chrome/119.0.0.0 Safari/537.36" etag="XjvZS1stXUALhdwgFieN" version="22.1.7" type="device" pages="2">
  <diagram name="Organização_MR" id="m24ul05NXFJ5dJRhtd3D">
    <mxGraphModel dx="1930" dy="472" grid="1" gridSize="10" guides="1" tooltips="1" connect="1" arrows="1" fold="1" page="1" pageScale="1" pageWidth="827" pageHeight="1169" background="none" math="0" shadow="1">
      <root>
        <mxCell id="0" />
        <mxCell id="1" parent="0" />
        <mxCell id="85pd6YmVLvLeTDUKKgcG-65" style="edgeStyle=orthogonalEdgeStyle;rounded=0;orthogonalLoop=1;jettySize=auto;html=1;exitX=0.5;exitY=1;exitDx=0;exitDy=0;" edge="1" parent="1" source="wjUs_u3mwewXCP6s2xi9-3" target="wjUs_u3mwewXCP6s2xi9-4">
          <mxGeometry relative="1" as="geometry" />
        </mxCell>
        <mxCell id="85pd6YmVLvLeTDUKKgcG-70" style="edgeStyle=orthogonalEdgeStyle;rounded=0;orthogonalLoop=1;jettySize=auto;html=1;exitX=0.5;exitY=1;exitDx=0;exitDy=0;" edge="1" parent="1" source="wjUs_u3mwewXCP6s2xi9-3" target="wjUs_u3mwewXCP6s2xi9-5">
          <mxGeometry relative="1" as="geometry">
            <Array as="points">
              <mxPoint x="435" y="120" />
              <mxPoint x="815" y="120" />
            </Array>
          </mxGeometry>
        </mxCell>
        <mxCell id="wjUs_u3mwewXCP6s2xi9-3" value="Organização_MR" style="rounded=1;whiteSpace=wrap;html=1;" parent="1" vertex="1">
          <mxGeometry x="375" y="10" width="120" height="60" as="geometry" />
        </mxCell>
        <mxCell id="wjUs_u3mwewXCP6s2xi9-23" style="edgeStyle=orthogonalEdgeStyle;rounded=0;orthogonalLoop=1;jettySize=auto;html=1;exitX=0.5;exitY=1;exitDx=0;exitDy=0;" parent="1" source="wjUs_u3mwewXCP6s2xi9-4" target="wjUs_u3mwewXCP6s2xi9-7" edge="1">
          <mxGeometry relative="1" as="geometry" />
        </mxCell>
        <mxCell id="wjUs_u3mwewXCP6s2xi9-26" style="edgeStyle=orthogonalEdgeStyle;rounded=0;orthogonalLoop=1;jettySize=auto;html=1;exitX=0.5;exitY=1;exitDx=0;exitDy=0;" parent="1" source="wjUs_u3mwewXCP6s2xi9-4" target="wjUs_u3mwewXCP6s2xi9-8" edge="1">
          <mxGeometry relative="1" as="geometry" />
        </mxCell>
        <mxCell id="wjUs_u3mwewXCP6s2xi9-4" value="Comercial" style="rounded=0;whiteSpace=wrap;html=1;" parent="1" vertex="1">
          <mxGeometry x="-25" y="170" width="120" height="60" as="geometry" />
        </mxCell>
        <mxCell id="wjUs_u3mwewXCP6s2xi9-27" style="edgeStyle=orthogonalEdgeStyle;rounded=0;orthogonalLoop=1;jettySize=auto;html=1;exitX=0.5;exitY=1;exitDx=0;exitDy=0;entryX=0.5;entryY=0;entryDx=0;entryDy=0;" parent="1" source="wjUs_u3mwewXCP6s2xi9-5" target="wjUs_u3mwewXCP6s2xi9-9" edge="1">
          <mxGeometry relative="1" as="geometry" />
        </mxCell>
        <mxCell id="wjUs_u3mwewXCP6s2xi9-28" style="edgeStyle=orthogonalEdgeStyle;rounded=0;orthogonalLoop=1;jettySize=auto;html=1;exitX=0.5;exitY=1;exitDx=0;exitDy=0;" parent="1" source="wjUs_u3mwewXCP6s2xi9-5" target="wjUs_u3mwewXCP6s2xi9-10" edge="1">
          <mxGeometry relative="1" as="geometry" />
        </mxCell>
        <mxCell id="wjUs_u3mwewXCP6s2xi9-5" value="Financeiro" style="rounded=0;whiteSpace=wrap;html=1;" parent="1" vertex="1">
          <mxGeometry x="755" y="180" width="120" height="60" as="geometry" />
        </mxCell>
        <mxCell id="85pd6YmVLvLeTDUKKgcG-79" style="edgeStyle=orthogonalEdgeStyle;rounded=0;orthogonalLoop=1;jettySize=auto;html=1;exitX=0.5;exitY=1;exitDx=0;exitDy=0;" edge="1" parent="1" source="wjUs_u3mwewXCP6s2xi9-7" target="85pd6YmVLvLeTDUKKgcG-56">
          <mxGeometry relative="1" as="geometry" />
        </mxCell>
        <mxCell id="85pd6YmVLvLeTDUKKgcG-80" style="edgeStyle=orthogonalEdgeStyle;rounded=0;orthogonalLoop=1;jettySize=auto;html=1;exitX=0.5;exitY=1;exitDx=0;exitDy=0;" edge="1" parent="1" source="wjUs_u3mwewXCP6s2xi9-7" target="85pd6YmVLvLeTDUKKgcG-57">
          <mxGeometry relative="1" as="geometry" />
        </mxCell>
        <mxCell id="wjUs_u3mwewXCP6s2xi9-7" value="Mobile" style="rounded=0;whiteSpace=wrap;html=1;" parent="1" vertex="1">
          <mxGeometry x="-110" y="280" width="120" height="60" as="geometry" />
        </mxCell>
        <mxCell id="85pd6YmVLvLeTDUKKgcG-81" style="edgeStyle=orthogonalEdgeStyle;rounded=0;orthogonalLoop=1;jettySize=auto;html=1;exitX=0.5;exitY=1;exitDx=0;exitDy=0;entryX=0.5;entryY=0;entryDx=0;entryDy=0;" edge="1" parent="1" source="wjUs_u3mwewXCP6s2xi9-8" target="85pd6YmVLvLeTDUKKgcG-63">
          <mxGeometry relative="1" as="geometry" />
        </mxCell>
        <mxCell id="85pd6YmVLvLeTDUKKgcG-82" style="edgeStyle=orthogonalEdgeStyle;rounded=0;orthogonalLoop=1;jettySize=auto;html=1;exitX=0.5;exitY=1;exitDx=0;exitDy=0;" edge="1" parent="1" source="wjUs_u3mwewXCP6s2xi9-8" target="85pd6YmVLvLeTDUKKgcG-62">
          <mxGeometry relative="1" as="geometry" />
        </mxCell>
        <mxCell id="wjUs_u3mwewXCP6s2xi9-8" value="ERP" style="rounded=0;whiteSpace=wrap;html=1;" parent="1" vertex="1">
          <mxGeometry x="50" y="280" width="120" height="60" as="geometry" />
        </mxCell>
        <mxCell id="85pd6YmVLvLeTDUKKgcG-71" style="edgeStyle=orthogonalEdgeStyle;rounded=0;orthogonalLoop=1;jettySize=auto;html=1;exitX=0.5;exitY=1;exitDx=0;exitDy=0;entryX=0.5;entryY=0;entryDx=0;entryDy=0;" edge="1" parent="1" source="wjUs_u3mwewXCP6s2xi9-9" target="85pd6YmVLvLeTDUKKgcG-66">
          <mxGeometry relative="1" as="geometry" />
        </mxCell>
        <mxCell id="85pd6YmVLvLeTDUKKgcG-72" style="edgeStyle=orthogonalEdgeStyle;rounded=0;orthogonalLoop=1;jettySize=auto;html=1;exitX=0.5;exitY=1;exitDx=0;exitDy=0;" edge="1" parent="1" source="wjUs_u3mwewXCP6s2xi9-9" target="85pd6YmVLvLeTDUKKgcG-67">
          <mxGeometry relative="1" as="geometry" />
        </mxCell>
        <mxCell id="wjUs_u3mwewXCP6s2xi9-9" value="Mobile" style="rounded=0;whiteSpace=wrap;html=1;" parent="1" vertex="1">
          <mxGeometry x="675" y="280" width="120" height="60" as="geometry" />
        </mxCell>
        <mxCell id="85pd6YmVLvLeTDUKKgcG-73" style="edgeStyle=orthogonalEdgeStyle;rounded=0;orthogonalLoop=1;jettySize=auto;html=1;exitX=0.5;exitY=1;exitDx=0;exitDy=0;" edge="1" parent="1" source="wjUs_u3mwewXCP6s2xi9-10" target="85pd6YmVLvLeTDUKKgcG-69">
          <mxGeometry relative="1" as="geometry" />
        </mxCell>
        <mxCell id="85pd6YmVLvLeTDUKKgcG-74" style="edgeStyle=orthogonalEdgeStyle;rounded=0;orthogonalLoop=1;jettySize=auto;html=1;exitX=0.5;exitY=1;exitDx=0;exitDy=0;entryX=0.5;entryY=0;entryDx=0;entryDy=0;" edge="1" parent="1" source="wjUs_u3mwewXCP6s2xi9-10" target="85pd6YmVLvLeTDUKKgcG-68">
          <mxGeometry relative="1" as="geometry" />
        </mxCell>
        <mxCell id="wjUs_u3mwewXCP6s2xi9-10" value="ERP" style="rounded=0;whiteSpace=wrap;html=1;" parent="1" vertex="1">
          <mxGeometry x="835" y="280" width="120" height="60" as="geometry" />
        </mxCell>
        <mxCell id="wjUs_u3mwewXCP6s2xi9-11" value="COM_MOB&lt;br style=&quot;font-size: 11px;&quot;&gt;HOMOLOG" style="whiteSpace=wrap;html=1;aspect=fixed;fontSize=11;labelBackgroundColor=none;fillColor=#ffe6cc;strokeColor=#d79b00;" parent="1" vertex="1">
          <mxGeometry x="-250" y="500" width="60" height="60" as="geometry" />
        </mxCell>
        <mxCell id="wjUs_u3mwewXCP6s2xi9-13" value="COM_MOB&lt;br style=&quot;font-size: 11px;&quot;&gt;PROD" style="whiteSpace=wrap;html=1;aspect=fixed;fontSize=11;labelBackgroundColor=none;fillColor=#ffe6cc;strokeColor=#d79b00;" parent="1" vertex="1">
          <mxGeometry x="-90" y="500" width="60" height="60" as="geometry" />
        </mxCell>
        <mxCell id="wjUs_u3mwewXCP6s2xi9-14" value="COM_ERP&lt;br style=&quot;font-size: 11px;&quot;&gt;HOMOLOG" style="whiteSpace=wrap;html=1;aspect=fixed;fontSize=11;labelBackgroundColor=none;fillColor=#ffe6cc;strokeColor=#d79b00;" parent="1" vertex="1">
          <mxGeometry x="125" y="500" width="60" height="60" as="geometry" />
        </mxCell>
        <mxCell id="wjUs_u3mwewXCP6s2xi9-15" value="COM_ERP&lt;br style=&quot;font-size: 11px;&quot;&gt;PROD" style="whiteSpace=wrap;html=1;aspect=fixed;fontSize=11;labelBackgroundColor=none;fillColor=#ffe6cc;strokeColor=#d79b00;" parent="1" vertex="1">
          <mxGeometry x="285" y="500" width="60" height="60" as="geometry" />
        </mxCell>
        <mxCell id="wjUs_u3mwewXCP6s2xi9-16" value="FIN_MOB&lt;br&gt;HOMOLOG" style="whiteSpace=wrap;html=1;aspect=fixed;fontSize=11;labelBackgroundColor=none;fillColor=#ffe6cc;strokeColor=#d79b00;" parent="1" vertex="1">
          <mxGeometry x="500" y="500" width="60" height="60" as="geometry" />
        </mxCell>
        <mxCell id="wjUs_u3mwewXCP6s2xi9-17" value="&lt;br&gt;&lt;span style=&quot;font-family: Helvetica; font-size: 11px; font-style: normal; font-variant-ligatures: normal; font-variant-caps: normal; font-weight: 400; letter-spacing: normal; orphans: 2; text-align: center; text-indent: 0px; text-transform: none; widows: 2; word-spacing: 0px; -webkit-text-stroke-width: 0px; text-decoration-thickness: initial; text-decoration-style: initial; text-decoration-color: initial; float: none; display: inline !important;&quot;&gt;FIN_MOB&lt;/span&gt;&lt;br style=&quot;border-color: var(--border-color); font-family: Helvetica; font-size: 11px; font-style: normal; font-variant-ligatures: normal; font-variant-caps: normal; font-weight: 400; letter-spacing: normal; orphans: 2; text-align: center; text-indent: 0px; text-transform: none; widows: 2; word-spacing: 0px; -webkit-text-stroke-width: 0px; text-decoration-thickness: initial; text-decoration-style: initial; text-decoration-color: initial;&quot;&gt;&lt;span style=&quot;font-family: Helvetica; font-size: 11px; font-style: normal; font-variant-ligatures: normal; font-variant-caps: normal; font-weight: 400; letter-spacing: normal; orphans: 2; text-align: center; text-indent: 0px; text-transform: none; widows: 2; word-spacing: 0px; -webkit-text-stroke-width: 0px; text-decoration-thickness: initial; text-decoration-style: initial; text-decoration-color: initial; float: none; display: inline !important;&quot;&gt;PROD&lt;/span&gt;&lt;br&gt;" style="whiteSpace=wrap;html=1;aspect=fixed;fontSize=11;labelBackgroundColor=none;fillColor=#ffe6cc;strokeColor=#d79b00;" parent="1" vertex="1">
          <mxGeometry x="660" y="500" width="60" height="60" as="geometry" />
        </mxCell>
        <mxCell id="wjUs_u3mwewXCP6s2xi9-18" value="FIN_ERP&lt;br&gt;HOMOLOG" style="whiteSpace=wrap;html=1;aspect=fixed;fontSize=11;labelBackgroundColor=none;fillColor=#ffe6cc;strokeColor=#d79b00;" parent="1" vertex="1">
          <mxGeometry x="875" y="500" width="60" height="60" as="geometry" />
        </mxCell>
        <mxCell id="wjUs_u3mwewXCP6s2xi9-19" value="FIN_ERP&lt;br&gt;PROD" style="whiteSpace=wrap;html=1;aspect=fixed;fontSize=11;labelBackgroundColor=none;fillColor=#ffe6cc;strokeColor=#d79b00;" parent="1" vertex="1">
          <mxGeometry x="1035" y="500" width="60" height="60" as="geometry" />
        </mxCell>
        <mxCell id="wjUs_u3mwewXCP6s2xi9-38" value="" style="sketch=0;pointerEvents=1;shadow=0;dashed=0;html=1;strokeColor=none;labelPosition=center;verticalLabelPosition=bottom;verticalAlign=top;outlineConnect=0;align=center;shape=mxgraph.office.concepts.folder;fillColor=#2072B8;" parent="1" vertex="1">
          <mxGeometry x="-35" y="160" width="40" height="30" as="geometry" />
        </mxCell>
        <mxCell id="wjUs_u3mwewXCP6s2xi9-39" value="" style="sketch=0;pointerEvents=1;shadow=0;dashed=0;html=1;strokeColor=none;labelPosition=center;verticalLabelPosition=bottom;verticalAlign=top;outlineConnect=0;align=center;shape=mxgraph.office.concepts.folder;fillColor=#2072B8;" parent="1" vertex="1">
          <mxGeometry x="740" y="170" width="40" height="30" as="geometry" />
        </mxCell>
        <mxCell id="wjUs_u3mwewXCP6s2xi9-40" value="" style="sketch=0;pointerEvents=1;shadow=0;dashed=0;html=1;strokeColor=none;labelPosition=center;verticalLabelPosition=bottom;verticalAlign=top;outlineConnect=0;align=center;shape=mxgraph.office.concepts.folder;fillColor=#2072B8;gradientColor=default;" parent="1" vertex="1">
          <mxGeometry x="-130" y="270" width="40" height="30" as="geometry" />
        </mxCell>
        <mxCell id="wjUs_u3mwewXCP6s2xi9-41" value="" style="sketch=0;pointerEvents=1;shadow=0;dashed=0;html=1;strokeColor=none;labelPosition=center;verticalLabelPosition=bottom;verticalAlign=top;outlineConnect=0;align=center;shape=mxgraph.office.concepts.folder;fillColor=#2072B8;" parent="1" vertex="1">
          <mxGeometry x="-120" y="280" width="40" height="30" as="geometry" />
        </mxCell>
        <mxCell id="wjUs_u3mwewXCP6s2xi9-42" value="" style="sketch=0;pointerEvents=1;shadow=0;dashed=0;html=1;strokeColor=none;labelPosition=center;verticalLabelPosition=bottom;verticalAlign=top;outlineConnect=0;align=center;shape=mxgraph.office.concepts.folder;fillColor=#2072B8;gradientColor=default;" parent="1" vertex="1">
          <mxGeometry x="30" y="270" width="40" height="30" as="geometry" />
        </mxCell>
        <mxCell id="wjUs_u3mwewXCP6s2xi9-43" value="" style="sketch=0;pointerEvents=1;shadow=0;dashed=0;html=1;strokeColor=none;labelPosition=center;verticalLabelPosition=bottom;verticalAlign=top;outlineConnect=0;align=center;shape=mxgraph.office.concepts.folder;fillColor=#2072B8;gradientColor=none;" parent="1" vertex="1">
          <mxGeometry x="40" y="280" width="40" height="30" as="geometry" />
        </mxCell>
        <mxCell id="wjUs_u3mwewXCP6s2xi9-44" value="" style="sketch=0;pointerEvents=1;shadow=0;dashed=0;html=1;strokeColor=none;labelPosition=center;verticalLabelPosition=bottom;verticalAlign=top;outlineConnect=0;align=center;shape=mxgraph.office.concepts.folder;fillColor=#2072B8;gradientColor=default;" parent="1" vertex="1">
          <mxGeometry x="650" y="270" width="40" height="30" as="geometry" />
        </mxCell>
        <mxCell id="wjUs_u3mwewXCP6s2xi9-45" value="" style="sketch=0;pointerEvents=1;shadow=0;dashed=0;html=1;strokeColor=none;labelPosition=center;verticalLabelPosition=bottom;verticalAlign=top;outlineConnect=0;align=center;shape=mxgraph.office.concepts.folder;fillColor=#2072B8;gradientColor=none;" parent="1" vertex="1">
          <mxGeometry x="660" y="280" width="40" height="30" as="geometry" />
        </mxCell>
        <mxCell id="wjUs_u3mwewXCP6s2xi9-46" value="" style="sketch=0;pointerEvents=1;shadow=0;dashed=0;html=1;strokeColor=none;labelPosition=center;verticalLabelPosition=bottom;verticalAlign=top;outlineConnect=0;align=center;shape=mxgraph.office.concepts.folder;fillColor=#2072B8;gradientColor=default;" parent="1" vertex="1">
          <mxGeometry x="820" y="270" width="40" height="30" as="geometry" />
        </mxCell>
        <mxCell id="wjUs_u3mwewXCP6s2xi9-47" value="" style="sketch=0;pointerEvents=1;shadow=0;dashed=0;html=1;strokeColor=none;labelPosition=center;verticalLabelPosition=bottom;verticalAlign=top;outlineConnect=0;align=center;shape=mxgraph.office.concepts.folder;fillColor=#2072B8;" parent="1" vertex="1">
          <mxGeometry x="830" y="280" width="40" height="30" as="geometry" />
        </mxCell>
        <mxCell id="85pd6YmVLvLeTDUKKgcG-83" style="edgeStyle=orthogonalEdgeStyle;rounded=0;orthogonalLoop=1;jettySize=auto;html=1;exitX=0.5;exitY=1;exitDx=0;exitDy=0;entryX=0.5;entryY=0;entryDx=0;entryDy=0;" edge="1" parent="1" source="85pd6YmVLvLeTDUKKgcG-56" target="wjUs_u3mwewXCP6s2xi9-11">
          <mxGeometry relative="1" as="geometry" />
        </mxCell>
        <mxCell id="85pd6YmVLvLeTDUKKgcG-56" value="Homologação" style="rounded=0;whiteSpace=wrap;html=1;" vertex="1" parent="1">
          <mxGeometry x="-280" y="400" width="120" height="60" as="geometry" />
        </mxCell>
        <mxCell id="85pd6YmVLvLeTDUKKgcG-84" style="edgeStyle=orthogonalEdgeStyle;rounded=0;orthogonalLoop=1;jettySize=auto;html=1;exitX=0.5;exitY=1;exitDx=0;exitDy=0;" edge="1" parent="1" source="85pd6YmVLvLeTDUKKgcG-57" target="wjUs_u3mwewXCP6s2xi9-13">
          <mxGeometry relative="1" as="geometry" />
        </mxCell>
        <mxCell id="85pd6YmVLvLeTDUKKgcG-57" value="Produção" style="rounded=0;whiteSpace=wrap;html=1;" vertex="1" parent="1">
          <mxGeometry x="-120" y="400" width="120" height="60" as="geometry" />
        </mxCell>
        <mxCell id="85pd6YmVLvLeTDUKKgcG-85" style="edgeStyle=orthogonalEdgeStyle;rounded=0;orthogonalLoop=1;jettySize=auto;html=1;exitX=0.5;exitY=1;exitDx=0;exitDy=0;" edge="1" parent="1" source="85pd6YmVLvLeTDUKKgcG-62" target="wjUs_u3mwewXCP6s2xi9-14">
          <mxGeometry relative="1" as="geometry" />
        </mxCell>
        <mxCell id="85pd6YmVLvLeTDUKKgcG-62" value="Homologação" style="rounded=0;whiteSpace=wrap;html=1;" vertex="1" parent="1">
          <mxGeometry x="95" y="400" width="120" height="60" as="geometry" />
        </mxCell>
        <mxCell id="85pd6YmVLvLeTDUKKgcG-86" style="edgeStyle=orthogonalEdgeStyle;rounded=0;orthogonalLoop=1;jettySize=auto;html=1;exitX=0.5;exitY=1;exitDx=0;exitDy=0;" edge="1" parent="1" source="85pd6YmVLvLeTDUKKgcG-63" target="wjUs_u3mwewXCP6s2xi9-15">
          <mxGeometry relative="1" as="geometry" />
        </mxCell>
        <mxCell id="85pd6YmVLvLeTDUKKgcG-63" value="Produção" style="rounded=0;whiteSpace=wrap;html=1;" vertex="1" parent="1">
          <mxGeometry x="255" y="400" width="120" height="60" as="geometry" />
        </mxCell>
        <mxCell id="85pd6YmVLvLeTDUKKgcG-78" style="edgeStyle=orthogonalEdgeStyle;rounded=0;orthogonalLoop=1;jettySize=auto;html=1;exitX=0.5;exitY=1;exitDx=0;exitDy=0;entryX=0.5;entryY=0;entryDx=0;entryDy=0;" edge="1" parent="1" source="85pd6YmVLvLeTDUKKgcG-66" target="wjUs_u3mwewXCP6s2xi9-16">
          <mxGeometry relative="1" as="geometry" />
        </mxCell>
        <mxCell id="85pd6YmVLvLeTDUKKgcG-66" value="Homologação" style="rounded=0;whiteSpace=wrap;html=1;" vertex="1" parent="1">
          <mxGeometry x="470" y="400" width="120" height="60" as="geometry" />
        </mxCell>
        <mxCell id="85pd6YmVLvLeTDUKKgcG-77" style="edgeStyle=orthogonalEdgeStyle;rounded=0;orthogonalLoop=1;jettySize=auto;html=1;exitX=0.5;exitY=1;exitDx=0;exitDy=0;" edge="1" parent="1" source="85pd6YmVLvLeTDUKKgcG-67" target="wjUs_u3mwewXCP6s2xi9-17">
          <mxGeometry relative="1" as="geometry" />
        </mxCell>
        <mxCell id="85pd6YmVLvLeTDUKKgcG-67" value="Produção" style="rounded=0;whiteSpace=wrap;html=1;" vertex="1" parent="1">
          <mxGeometry x="630" y="400" width="120" height="60" as="geometry" />
        </mxCell>
        <mxCell id="85pd6YmVLvLeTDUKKgcG-75" style="edgeStyle=orthogonalEdgeStyle;rounded=0;orthogonalLoop=1;jettySize=auto;html=1;exitX=0.5;exitY=1;exitDx=0;exitDy=0;" edge="1" parent="1" source="85pd6YmVLvLeTDUKKgcG-68" target="wjUs_u3mwewXCP6s2xi9-18">
          <mxGeometry relative="1" as="geometry" />
        </mxCell>
        <mxCell id="85pd6YmVLvLeTDUKKgcG-68" value="Homologação" style="rounded=0;whiteSpace=wrap;html=1;" vertex="1" parent="1">
          <mxGeometry x="845" y="400" width="120" height="60" as="geometry" />
        </mxCell>
        <mxCell id="85pd6YmVLvLeTDUKKgcG-76" style="edgeStyle=orthogonalEdgeStyle;rounded=0;orthogonalLoop=1;jettySize=auto;html=1;exitX=0.5;exitY=1;exitDx=0;exitDy=0;" edge="1" parent="1" source="85pd6YmVLvLeTDUKKgcG-69" target="wjUs_u3mwewXCP6s2xi9-19">
          <mxGeometry relative="1" as="geometry" />
        </mxCell>
        <mxCell id="85pd6YmVLvLeTDUKKgcG-69" value="Produção" style="rounded=0;whiteSpace=wrap;html=1;" vertex="1" parent="1">
          <mxGeometry x="1005" y="400" width="120" height="60" as="geometry" />
        </mxCell>
        <mxCell id="85pd6YmVLvLeTDUKKgcG-87" value="" style="sketch=0;pointerEvents=1;shadow=0;dashed=0;html=1;strokeColor=none;labelPosition=center;verticalLabelPosition=bottom;verticalAlign=top;outlineConnect=0;align=center;shape=mxgraph.office.concepts.folder;fillColor=#2072B8;gradientColor=default;" vertex="1" parent="1">
          <mxGeometry x="-300" y="380" width="40" height="30" as="geometry" />
        </mxCell>
        <mxCell id="85pd6YmVLvLeTDUKKgcG-88" value="" style="sketch=0;pointerEvents=1;shadow=0;dashed=0;html=1;strokeColor=none;labelPosition=center;verticalLabelPosition=bottom;verticalAlign=top;outlineConnect=0;align=center;shape=mxgraph.office.concepts.folder;fillColor=#2072B8;" vertex="1" parent="1">
          <mxGeometry x="-290" y="390" width="40" height="30" as="geometry" />
        </mxCell>
        <mxCell id="85pd6YmVLvLeTDUKKgcG-89" value="" style="sketch=0;pointerEvents=1;shadow=0;dashed=0;html=1;strokeColor=none;labelPosition=center;verticalLabelPosition=bottom;verticalAlign=top;outlineConnect=0;align=center;shape=mxgraph.office.concepts.folder;fillColor=#2072B8;gradientColor=default;" vertex="1" parent="1">
          <mxGeometry x="-140" y="385" width="40" height="30" as="geometry" />
        </mxCell>
        <mxCell id="85pd6YmVLvLeTDUKKgcG-90" value="" style="sketch=0;pointerEvents=1;shadow=0;dashed=0;html=1;strokeColor=none;labelPosition=center;verticalLabelPosition=bottom;verticalAlign=top;outlineConnect=0;align=center;shape=mxgraph.office.concepts.folder;fillColor=#2072B8;" vertex="1" parent="1">
          <mxGeometry x="-130" y="395" width="40" height="30" as="geometry" />
        </mxCell>
        <mxCell id="85pd6YmVLvLeTDUKKgcG-91" value="" style="sketch=0;pointerEvents=1;shadow=0;dashed=0;html=1;strokeColor=none;labelPosition=center;verticalLabelPosition=bottom;verticalAlign=top;outlineConnect=0;align=center;shape=mxgraph.office.concepts.folder;fillColor=#2072B8;gradientColor=default;" vertex="1" parent="1">
          <mxGeometry x="70" y="380" width="40" height="30" as="geometry" />
        </mxCell>
        <mxCell id="85pd6YmVLvLeTDUKKgcG-92" value="" style="sketch=0;pointerEvents=1;shadow=0;dashed=0;html=1;strokeColor=none;labelPosition=center;verticalLabelPosition=bottom;verticalAlign=top;outlineConnect=0;align=center;shape=mxgraph.office.concepts.folder;fillColor=#2072B8;" vertex="1" parent="1">
          <mxGeometry x="80" y="390" width="40" height="30" as="geometry" />
        </mxCell>
        <mxCell id="85pd6YmVLvLeTDUKKgcG-93" value="" style="sketch=0;pointerEvents=1;shadow=0;dashed=0;html=1;strokeColor=none;labelPosition=center;verticalLabelPosition=bottom;verticalAlign=top;outlineConnect=0;align=center;shape=mxgraph.office.concepts.folder;fillColor=#2072B8;gradientColor=default;" vertex="1" parent="1">
          <mxGeometry x="240" y="380" width="40" height="30" as="geometry" />
        </mxCell>
        <mxCell id="85pd6YmVLvLeTDUKKgcG-94" value="" style="sketch=0;pointerEvents=1;shadow=0;dashed=0;html=1;strokeColor=none;labelPosition=center;verticalLabelPosition=bottom;verticalAlign=top;outlineConnect=0;align=center;shape=mxgraph.office.concepts.folder;fillColor=#2072B8;" vertex="1" parent="1">
          <mxGeometry x="250" y="390" width="40" height="30" as="geometry" />
        </mxCell>
        <mxCell id="85pd6YmVLvLeTDUKKgcG-99" value="" style="sketch=0;pointerEvents=1;shadow=0;dashed=0;html=1;strokeColor=none;labelPosition=center;verticalLabelPosition=bottom;verticalAlign=top;outlineConnect=0;align=center;shape=mxgraph.office.concepts.folder;fillColor=#2072B8;gradientColor=default;" vertex="1" parent="1">
          <mxGeometry x="450" y="380" width="40" height="30" as="geometry" />
        </mxCell>
        <mxCell id="85pd6YmVLvLeTDUKKgcG-100" value="" style="sketch=0;pointerEvents=1;shadow=0;dashed=0;html=1;strokeColor=none;labelPosition=center;verticalLabelPosition=bottom;verticalAlign=top;outlineConnect=0;align=center;shape=mxgraph.office.concepts.folder;fillColor=#2072B8;" vertex="1" parent="1">
          <mxGeometry x="460" y="390" width="40" height="30" as="geometry" />
        </mxCell>
        <mxCell id="85pd6YmVLvLeTDUKKgcG-101" value="" style="sketch=0;pointerEvents=1;shadow=0;dashed=0;html=1;strokeColor=none;labelPosition=center;verticalLabelPosition=bottom;verticalAlign=top;outlineConnect=0;align=center;shape=mxgraph.office.concepts.folder;fillColor=#2072B8;gradientColor=default;" vertex="1" parent="1">
          <mxGeometry x="610" y="380" width="40" height="30" as="geometry" />
        </mxCell>
        <mxCell id="85pd6YmVLvLeTDUKKgcG-102" value="" style="sketch=0;pointerEvents=1;shadow=0;dashed=0;html=1;strokeColor=none;labelPosition=center;verticalLabelPosition=bottom;verticalAlign=top;outlineConnect=0;align=center;shape=mxgraph.office.concepts.folder;fillColor=#2072B8;" vertex="1" parent="1">
          <mxGeometry x="620" y="390" width="40" height="30" as="geometry" />
        </mxCell>
        <mxCell id="85pd6YmVLvLeTDUKKgcG-103" value="" style="sketch=0;pointerEvents=1;shadow=0;dashed=0;html=1;strokeColor=none;labelPosition=center;verticalLabelPosition=bottom;verticalAlign=top;outlineConnect=0;align=center;shape=mxgraph.office.concepts.folder;fillColor=#2072B8;gradientColor=default;" vertex="1" parent="1">
          <mxGeometry x="825" y="380" width="40" height="30" as="geometry" />
        </mxCell>
        <mxCell id="85pd6YmVLvLeTDUKKgcG-104" value="" style="sketch=0;pointerEvents=1;shadow=0;dashed=0;html=1;strokeColor=none;labelPosition=center;verticalLabelPosition=bottom;verticalAlign=top;outlineConnect=0;align=center;shape=mxgraph.office.concepts.folder;fillColor=#2072B8;" vertex="1" parent="1">
          <mxGeometry x="835" y="390" width="40" height="30" as="geometry" />
        </mxCell>
        <mxCell id="85pd6YmVLvLeTDUKKgcG-105" value="" style="sketch=0;pointerEvents=1;shadow=0;dashed=0;html=1;strokeColor=none;labelPosition=center;verticalLabelPosition=bottom;verticalAlign=top;outlineConnect=0;align=center;shape=mxgraph.office.concepts.folder;fillColor=#2072B8;gradientColor=default;" vertex="1" parent="1">
          <mxGeometry x="985" y="380" width="40" height="30" as="geometry" />
        </mxCell>
        <mxCell id="85pd6YmVLvLeTDUKKgcG-106" value="" style="sketch=0;pointerEvents=1;shadow=0;dashed=0;html=1;strokeColor=none;labelPosition=center;verticalLabelPosition=bottom;verticalAlign=top;outlineConnect=0;align=center;shape=mxgraph.office.concepts.folder;fillColor=#2072B8;" vertex="1" parent="1">
          <mxGeometry x="995" y="390" width="40" height="30" as="geometry" />
        </mxCell>
      </root>
    </mxGraphModel>
  </diagram>
  <diagram id="eV58hmzFnuofk8N-VPoM" name="Organização_Grupos">
    <mxGraphModel dx="1103" dy="472" grid="1" gridSize="10" guides="1" tooltips="1" connect="1" arrows="1" fold="1" page="1" pageScale="1" pageWidth="827" pageHeight="1169" math="0" shadow="0">
      <root>
        <mxCell id="0" />
        <mxCell id="1" parent="0" />
        <mxCell id="7Gej1M2fv9DKwfQSvga3-62" style="edgeStyle=orthogonalEdgeStyle;rounded=0;orthogonalLoop=1;jettySize=auto;html=1;exitX=0.5;exitY=1;exitDx=0;exitDy=0;entryX=0.5;entryY=0;entryDx=0;entryDy=0;" edge="1" parent="1" source="7Gej1M2fv9DKwfQSvga3-1" target="7Gej1M2fv9DKwfQSvga3-53">
          <mxGeometry relative="1" as="geometry" />
        </mxCell>
        <mxCell id="7Gej1M2fv9DKwfQSvga3-1" value="Organização_MR" style="rounded=1;whiteSpace=wrap;html=1;" vertex="1" parent="1">
          <mxGeometry x="380" y="20" width="120" height="60" as="geometry" />
        </mxCell>
        <mxCell id="7Gej1M2fv9DKwfQSvga3-49" style="edgeStyle=orthogonalEdgeStyle;rounded=0;orthogonalLoop=1;jettySize=auto;html=1;exitX=0.5;exitY=1;exitDx=0;exitDy=0;" edge="1" parent="1" source="7Gej1M2fv9DKwfQSvga3-2" target="7Gej1M2fv9DKwfQSvga3-31">
          <mxGeometry relative="1" as="geometry" />
        </mxCell>
        <mxCell id="7Gej1M2fv9DKwfQSvga3-2" value="Financeiro" style="rounded=0;whiteSpace=wrap;html=1;" vertex="1" parent="1">
          <mxGeometry x="110" y="240" width="120" height="60" as="geometry" />
        </mxCell>
        <mxCell id="7Gej1M2fv9DKwfQSvga3-51" style="edgeStyle=orthogonalEdgeStyle;rounded=0;orthogonalLoop=1;jettySize=auto;html=1;exitX=0.5;exitY=1;exitDx=0;exitDy=0;entryX=0.5;entryY=0;entryDx=0;entryDy=0;" edge="1" parent="1" source="7Gej1M2fv9DKwfQSvga3-3" target="7Gej1M2fv9DKwfQSvga3-33">
          <mxGeometry relative="1" as="geometry" />
        </mxCell>
        <mxCell id="7Gej1M2fv9DKwfQSvga3-3" value="Comercial" style="rounded=0;whiteSpace=wrap;html=1;" vertex="1" parent="1">
          <mxGeometry x="460" y="240" width="120" height="60" as="geometry" />
        </mxCell>
        <mxCell id="7Gej1M2fv9DKwfQSvga3-50" style="edgeStyle=orthogonalEdgeStyle;rounded=0;orthogonalLoop=1;jettySize=auto;html=1;exitX=0.5;exitY=1;exitDx=0;exitDy=0;entryX=0.5;entryY=0;entryDx=0;entryDy=0;" edge="1" parent="1" source="7Gej1M2fv9DKwfQSvga3-4" target="7Gej1M2fv9DKwfQSvga3-32">
          <mxGeometry relative="1" as="geometry" />
        </mxCell>
        <mxCell id="7Gej1M2fv9DKwfQSvga3-4" value="DevOps" style="rounded=0;whiteSpace=wrap;html=1;" vertex="1" parent="1">
          <mxGeometry x="290" y="240" width="120" height="60" as="geometry" />
        </mxCell>
        <mxCell id="7Gej1M2fv9DKwfQSvga3-52" style="edgeStyle=orthogonalEdgeStyle;rounded=0;orthogonalLoop=1;jettySize=auto;html=1;exitX=0.5;exitY=1;exitDx=0;exitDy=0;entryX=0.5;entryY=0;entryDx=0;entryDy=0;" edge="1" parent="1" source="7Gej1M2fv9DKwfQSvga3-5" target="7Gej1M2fv9DKwfQSvga3-34">
          <mxGeometry relative="1" as="geometry" />
        </mxCell>
        <mxCell id="7Gej1M2fv9DKwfQSvga3-5" value="Marketing" style="rounded=0;whiteSpace=wrap;html=1;" vertex="1" parent="1">
          <mxGeometry x="620" y="240" width="120" height="60" as="geometry" />
        </mxCell>
        <mxCell id="7Gej1M2fv9DKwfQSvga3-8" value="" style="sketch=0;outlineConnect=0;fontColor=#232F3E;gradientColor=none;strokeColor=#232F3E;fillColor=#ffffff;dashed=0;verticalLabelPosition=bottom;verticalAlign=top;align=center;html=1;fontSize=12;fontStyle=0;aspect=fixed;shape=mxgraph.aws4.resourceIcon;resIcon=mxgraph.aws4.users;" vertex="1" parent="1">
          <mxGeometry x="260" y="220" width="60" height="60" as="geometry" />
        </mxCell>
        <mxCell id="7Gej1M2fv9DKwfQSvga3-9" value="" style="sketch=0;outlineConnect=0;fontColor=#232F3E;gradientColor=none;strokeColor=#232F3E;fillColor=#ffffff;dashed=0;verticalLabelPosition=bottom;verticalAlign=top;align=center;html=1;fontSize=12;fontStyle=0;aspect=fixed;shape=mxgraph.aws4.resourceIcon;resIcon=mxgraph.aws4.users;" vertex="1" parent="1">
          <mxGeometry x="80" y="220" width="60" height="60" as="geometry" />
        </mxCell>
        <mxCell id="7Gej1M2fv9DKwfQSvga3-10" value="" style="sketch=0;outlineConnect=0;fontColor=#232F3E;gradientColor=none;strokeColor=#232F3E;fillColor=#ffffff;dashed=0;verticalLabelPosition=bottom;verticalAlign=top;align=center;html=1;fontSize=12;fontStyle=0;aspect=fixed;shape=mxgraph.aws4.resourceIcon;resIcon=mxgraph.aws4.users;" vertex="1" parent="1">
          <mxGeometry x="550" y="220" width="60" height="60" as="geometry" />
        </mxCell>
        <mxCell id="7Gej1M2fv9DKwfQSvga3-11" value="" style="sketch=0;outlineConnect=0;fontColor=#232F3E;gradientColor=none;strokeColor=#232F3E;fillColor=#ffffff;dashed=0;verticalLabelPosition=bottom;verticalAlign=top;align=center;html=1;fontSize=12;fontStyle=0;aspect=fixed;shape=mxgraph.aws4.resourceIcon;resIcon=mxgraph.aws4.users;" vertex="1" parent="1">
          <mxGeometry x="710" y="220" width="60" height="60" as="geometry" />
        </mxCell>
        <mxCell id="7Gej1M2fv9DKwfQSvga3-31" value="" style="whiteSpace=wrap;html=1;aspect=fixed;" vertex="1" parent="1">
          <mxGeometry x="125" y="350" width="90" height="90" as="geometry" />
        </mxCell>
        <mxCell id="7Gej1M2fv9DKwfQSvga3-32" value="" style="whiteSpace=wrap;html=1;aspect=fixed;" vertex="1" parent="1">
          <mxGeometry x="305" y="350" width="90" height="90" as="geometry" />
        </mxCell>
        <mxCell id="7Gej1M2fv9DKwfQSvga3-33" value="" style="whiteSpace=wrap;html=1;aspect=fixed;" vertex="1" parent="1">
          <mxGeometry x="475" y="350" width="90" height="90" as="geometry" />
        </mxCell>
        <mxCell id="7Gej1M2fv9DKwfQSvga3-34" value="" style="whiteSpace=wrap;html=1;aspect=fixed;" vertex="1" parent="1">
          <mxGeometry x="635" y="350" width="90" height="90" as="geometry" />
        </mxCell>
        <mxCell id="7Gej1M2fv9DKwfQSvga3-40" value="Users" style="sketch=0;outlineConnect=0;fontColor=#232F3E;gradientColor=none;strokeColor=#232F3E;fillColor=#ffffff;dashed=0;verticalLabelPosition=bottom;verticalAlign=top;align=center;html=1;fontSize=12;fontStyle=0;aspect=fixed;shape=mxgraph.aws4.resourceIcon;resIcon=mxgraph.aws4.users;" vertex="1" parent="1">
          <mxGeometry x="140" y="360" width="60" height="60" as="geometry" />
        </mxCell>
        <mxCell id="7Gej1M2fv9DKwfQSvga3-41" value="Users" style="sketch=0;outlineConnect=0;fontColor=#232F3E;gradientColor=none;strokeColor=#232F3E;fillColor=#ffffff;dashed=0;verticalLabelPosition=bottom;verticalAlign=top;align=center;html=1;fontSize=12;fontStyle=0;aspect=fixed;shape=mxgraph.aws4.resourceIcon;resIcon=mxgraph.aws4.users;" vertex="1" parent="1">
          <mxGeometry x="320" y="360" width="60" height="60" as="geometry" />
        </mxCell>
        <mxCell id="7Gej1M2fv9DKwfQSvga3-42" value="Users" style="sketch=0;outlineConnect=0;fontColor=#232F3E;gradientColor=none;strokeColor=#232F3E;fillColor=#ffffff;dashed=0;verticalLabelPosition=bottom;verticalAlign=top;align=center;html=1;fontSize=12;fontStyle=0;aspect=fixed;shape=mxgraph.aws4.resourceIcon;resIcon=mxgraph.aws4.users;" vertex="1" parent="1">
          <mxGeometry x="490" y="360" width="60" height="60" as="geometry" />
        </mxCell>
        <mxCell id="7Gej1M2fv9DKwfQSvga3-43" value="Users" style="sketch=0;outlineConnect=0;fontColor=#232F3E;gradientColor=none;strokeColor=#232F3E;fillColor=#ffffff;dashed=0;verticalLabelPosition=bottom;verticalAlign=top;align=center;html=1;fontSize=12;fontStyle=0;aspect=fixed;shape=mxgraph.aws4.resourceIcon;resIcon=mxgraph.aws4.users;" vertex="1" parent="1">
          <mxGeometry x="650" y="360" width="60" height="60" as="geometry" />
        </mxCell>
        <mxCell id="7Gej1M2fv9DKwfQSvga3-58" style="edgeStyle=orthogonalEdgeStyle;rounded=0;orthogonalLoop=1;jettySize=auto;html=1;exitX=0.5;exitY=1;exitDx=0;exitDy=0;entryX=0.5;entryY=0;entryDx=0;entryDy=0;" edge="1" parent="1" source="7Gej1M2fv9DKwfQSvga3-53" target="7Gej1M2fv9DKwfQSvga3-2">
          <mxGeometry relative="1" as="geometry" />
        </mxCell>
        <mxCell id="7Gej1M2fv9DKwfQSvga3-59" style="edgeStyle=orthogonalEdgeStyle;rounded=0;orthogonalLoop=1;jettySize=auto;html=1;exitX=0.5;exitY=1;exitDx=0;exitDy=0;entryX=0.5;entryY=0;entryDx=0;entryDy=0;" edge="1" parent="1" source="7Gej1M2fv9DKwfQSvga3-53" target="7Gej1M2fv9DKwfQSvga3-5">
          <mxGeometry relative="1" as="geometry" />
        </mxCell>
        <mxCell id="7Gej1M2fv9DKwfQSvga3-60" style="edgeStyle=orthogonalEdgeStyle;rounded=0;orthogonalLoop=1;jettySize=auto;html=1;exitX=0.5;exitY=1;exitDx=0;exitDy=0;" edge="1" parent="1" source="7Gej1M2fv9DKwfQSvga3-53" target="7Gej1M2fv9DKwfQSvga3-3">
          <mxGeometry relative="1" as="geometry" />
        </mxCell>
        <mxCell id="7Gej1M2fv9DKwfQSvga3-61" style="edgeStyle=orthogonalEdgeStyle;rounded=0;orthogonalLoop=1;jettySize=auto;html=1;exitX=0.5;exitY=1;exitDx=0;exitDy=0;" edge="1" parent="1" source="7Gej1M2fv9DKwfQSvga3-53" target="7Gej1M2fv9DKwfQSvga3-4">
          <mxGeometry relative="1" as="geometry" />
        </mxCell>
        <mxCell id="7Gej1M2fv9DKwfQSvga3-53" value="Admin_User" style="rounded=0;whiteSpace=wrap;html=1;" vertex="1" parent="1">
          <mxGeometry x="380" y="110" width="120" height="60" as="geometry" />
        </mxCell>
        <mxCell id="7Gej1M2fv9DKwfQSvga3-57" value="" style="sketch=0;pointerEvents=1;shadow=0;dashed=0;html=1;strokeColor=none;fillColor=#505050;labelPosition=center;verticalLabelPosition=bottom;verticalAlign=top;outlineConnect=0;align=center;shape=mxgraph.office.users.tenant_admin;" vertex="1" parent="1">
          <mxGeometry x="360" y="90" width="40" height="50" as="geometry" />
        </mxCell>
      </root>
    </mxGraphModel>
  </diagram>
</mxfile>
